<svg width="54" height="54" viewBox="0 0 54 54" fill="none" xmlns="http://www.w3.org/2000/svg">
<path d="M27 0C41.9117 0 54 12.0883 54 27C54 41.9117 41.9117 54 27 54C12.0883 54 0 41.9117 0 27C0 12.0883 12.0883 0 27 0ZM32.1875 17.2744C31.7866 16.8946 31.1543 16.9116 30.7744 17.3125C30.4183 17.6884 30.4103 18.2684 30.7412 18.6523L30.8125 18.7256L38.4912 26H13C12.4477 26 12 26.4477 12 27C12 27.5523 12.4477 28 13 28H38.5859L30.793 35.793C30.4024 36.1835 30.4024 36.8165 30.793 37.207C31.1835 37.5976 31.8165 37.5976 32.207 37.207L41.707 27.707C41.8979 27.5162 42.0036 27.2562 42 26.9863C41.9963 26.7165 41.8834 26.46 41.6875 26.2744L32.1875 17.2744Z" fill="white"/>
</svg>
