<svg width="31" height="30" viewBox="0 0 31 30" fill="none" xmlns="http://www.w3.org/2000/svg">
<path d="M15.5 0C20.6779 0 25.2623 2.45742 28.0771 6.23242L17.4512 22.1709L9.38086 12.6758C9.20197 12.4656 8.88609 12.4404 8.67578 12.6191C8.49197 12.7756 8.44966 13.0366 8.56152 13.2402L8.61914 13.3242L17.1191 23.3242L17.5479 23.8291L17.916 23.2773L28.6885 7.11719C30.1535 9.40785 31 12.1081 31 15C31 23.2843 24.0604 30 15.5 30C6.93959 30 0 23.2843 0 15C0 6.71573 6.93959 0 15.5 0ZM30.084 3.22266C30.2372 2.99289 30.5476 2.93081 30.7773 3.08398C31.0071 3.23716 31.0692 3.54758 30.916 3.77734L28.6885 7.11719C28.4952 6.81501 28.2915 6.51983 28.0771 6.23242L30.084 3.22266Z" fill="#72AC38"/>
</svg>
