<svg width="1920" height="768" viewBox="0 0 1920 768" fill="none" xmlns="http://www.w3.org/2000/svg">
<mask id="path-1-inside-1_3005_1559" fill="white">
<path d="M0 0H128V128H0V0Z"/>
<path d="M0 128H128V256H0V128Z"/>
<path d="M0 256H128V384H0V256Z"/>
<path d="M0 384H128V512H0V384Z"/>
<path d="M0 512H128V640H0V512Z"/>
<path d="M0 640H128V768H0V640Z"/>
<path d="M384 0H512V128H384V0Z"/>
<path d="M384 128H512V256H384V128Z"/>
<path d="M384 256H512V384H384V256Z"/>
<path d="M384 384H512V512H384V384Z"/>
<path d="M384 512H512V640H384V512Z"/>
<path d="M384 640H512V768H384V640Z"/>
<path d="M768 0H896V128H768V0Z"/>
<path d="M768 128H896V256H768V128Z"/>
<path d="M768 256H896V384H768V256Z"/>
<path d="M768 384H896V512H768V384Z"/>
<path d="M768 512H896V640H768V512Z"/>
<path d="M768 640H896V768H768V640Z"/>
<path d="M1152 0H1280V128H1152V0Z"/>
<path d="M1152 128H1280V256H1152V128Z"/>
<path d="M1152 256H1280V384H1152V256Z"/>
<path d="M1152 384H1280V512H1152V384Z"/>
<path d="M1152 512H1280V640H1152V512Z"/>
<path d="M1152 640H1280V768H1152V640Z"/>
<path d="M1536 0H1664V128H1536V0Z"/>
<path d="M1536 128H1664V256H1536V128Z"/>
<path d="M1536 256H1664V384H1536V256Z"/>
<path d="M1536 384H1664V512H1536V384Z"/>
<path d="M1536 512H1664V640H1536V512Z"/>
<path d="M1536 640H1664V768H1536V640Z"/>
<path d="M128 0H256V128H128V0Z"/>
<path d="M128 128H256V256H128V128Z"/>
<path d="M128 256H256V384H128V256Z"/>
<path d="M128 384H256V512H128V384Z"/>
<path d="M128 512H256V640H128V512Z"/>
<path d="M128 640H256V768H128V640Z"/>
<path d="M512 0H640V128H512V0Z"/>
<path d="M512 128H640V256H512V128Z"/>
<path d="M512 256H640V384H512V256Z"/>
<path d="M512 384H640V512H512V384Z"/>
<path d="M512 512H640V640H512V512Z"/>
<path d="M512 640H640V768H512V640Z"/>
<path d="M896 0H1024V128H896V0Z"/>
<path d="M896 128H1024V256H896V128Z"/>
<path d="M896 256H1024V384H896V256Z"/>
<path d="M896 384H1024V512H896V384Z"/>
<path d="M896 512H1024V640H896V512Z"/>
<path d="M896 640H1024V768H896V640Z"/>
<path d="M1280 0H1408V128H1280V0Z"/>
<path d="M1280 128H1408V256H1280V128Z"/>
<path d="M1280 256H1408V384H1280V256Z"/>
<path d="M1280 384H1408V512H1280V384Z"/>
<path d="M1280 512H1408V640H1280V512Z"/>
<path d="M1280 640H1408V768H1280V640Z"/>
<path d="M1664 0H1792V128H1664V0Z"/>
<path d="M1664 128H1792V256H1664V128Z"/>
<path d="M1664 256H1792V384H1664V256Z"/>
<path d="M1664 384H1792V512H1664V384Z"/>
<path d="M1664 512H1792V640H1664V512Z"/>
<path d="M1664 640H1792V768H1664V640Z"/>
<path d="M256 0H384V128H256V0Z"/>
<path d="M256 128H384V256H256V128Z"/>
<path d="M256 256H384V384H256V256Z"/>
<path d="M256 384H384V512H256V384Z"/>
<path d="M256 512H384V640H256V512Z"/>
<path d="M256 640H384V768H256V640Z"/>
<path d="M640 0H768V128H640V0Z"/>
<path d="M640 128H768V256H640V128Z"/>
<path d="M640 256H768V384H640V256Z"/>
<path d="M640 384H768V512H640V384Z"/>
<path d="M640 512H768V640H640V512Z"/>
<path d="M640 640H768V768H640V640Z"/>
<path d="M1024 0H1152V128H1024V0Z"/>
<path d="M1024 128H1152V256H1024V128Z"/>
<path d="M1024 256H1152V384H1024V256Z"/>
<path d="M1024 384H1152V512H1024V384Z"/>
<path d="M1024 512H1152V640H1024V512Z"/>
<path d="M1024 640H1152V768H1024V640Z"/>
<path d="M1408 0H1536V128H1408V0Z"/>
<path d="M1408 128H1536V256H1408V128Z"/>
<path d="M1408 256H1536V384H1408V256Z"/>
<path d="M1408 384H1536V512H1408V384Z"/>
<path d="M1408 512H1536V640H1408V512Z"/>
<path d="M1408 640H1536V768H1408V640Z"/>
<path d="M1792 0H1920V128H1792V0Z"/>
<path d="M1792 128H1920V256H1792V128Z"/>
<path d="M1792 256H1920V384H1792V256Z"/>
<path d="M1792 384H1920V512H1792V384Z"/>
<path d="M1792 512H1920V640H1792V512Z"/>
<path d="M1792 640H1920V768H1792V640Z"/>
</mask>
<path d="M128 0H127.5V128H128H128.5V0H128ZM128 128V127.5H0V128V128.5H128V128ZM128 128H127.5V256H128H128.5V128H128ZM128 256V255.5H0V256V256.5H128V256ZM128 256H127.5V384H128H128.5V256H128ZM128 384V383.5H0V384V384.5H128V384ZM128 384H127.5V512H128H128.5V384H128ZM128 512V511.5H0V512V512.5H128V512ZM128 512H127.5V640H128H128.5V512H128ZM128 640V639.5H0V640V640.5H128V640ZM128 640H127.5V768H128H128.5V640H128ZM512 0H511.5V128H512H512.5V0H512ZM512 128V127.5H384V128V128.5H512V128ZM384 128H384.5V0H384H383.5V128H384ZM512 128H511.5V256H512H512.5V128H512ZM512 256V255.5H384V256V256.5H512V256ZM384 256H384.5V128H384H383.5V256H384ZM512 256H511.5V384H512H512.5V256H512ZM512 384V383.5H384V384V384.5H512V384ZM384 384H384.5V256H384H383.5V384H384ZM512 384H511.5V512H512H512.5V384H512ZM512 512V511.5H384V512V512.5H512V512ZM384 512H384.5V384H384H383.5V512H384ZM512 512H511.5V640H512H512.5V512H512ZM512 640V639.5H384V640V640.5H512V640ZM384 640H384.5V512H384H383.5V640H384ZM512 640H511.5V768H512H512.5V640H512ZM384 768H384.5V640H384H383.5V768H384ZM896 0H895.5V128H896H896.5V0H896ZM896 128V127.5H768V128V128.5H896V128ZM768 128H768.5V0H768H767.5V128H768ZM896 128H895.5V256H896H896.5V128H896ZM896 256V255.5H768V256V256.5H896V256ZM768 256H768.5V128H768H767.5V256H768ZM896 256H895.5V384H896H896.5V256H896ZM896 384V383.5H768V384V384.5H896V384ZM768 384H768.5V256H768H767.5V384H768ZM896 384H895.5V512H896H896.5V384H896ZM896 512V511.5H768V512V512.5H896V512ZM768 512H768.5V384H768H767.5V512H768ZM896 512H895.5V640H896H896.5V512H896ZM896 640V639.5H768V640V640.5H896V640ZM768 640H768.5V512H768H767.5V640H768ZM896 640H895.5V768H896H896.5V640H896ZM768 768H768.5V640H768H767.5V768H768ZM1280 0H1279.5V128H1280H1280.5V0H1280ZM1280 128V127.5H1152V128V128.5H1280V128ZM1152 128H1152.5V0H1152H1151.5V128H1152ZM1280 128H1279.5V256H1280H1280.5V128H1280ZM1280 256V255.5H1152V256V256.5H1280V256ZM1152 256H1152.5V128H1152H1151.5V256H1152ZM1280 256H1279.5V384H1280H1280.5V256H1280ZM1280 384V383.5H1152V384V384.5H1280V384ZM1152 384H1152.5V256H1152H1151.5V384H1152ZM1280 384H1279.5V512H1280H1280.5V384H1280ZM1280 512V511.5H1152V512V512.5H1280V512ZM1152 512H1152.5V384H1152H1151.5V512H1152ZM1280 512H1279.5V640H1280H1280.5V512H1280ZM1280 640V639.5H1152V640V640.5H1280V640ZM1152 640H1152.5V512H1152H1151.5V640H1152ZM1280 640H1279.5V768H1280H1280.5V640H1280ZM1152 768H1152.5V640H1152H1151.5V768H1152ZM1664 0H1663.5V128H1664H1664.5V0H1664ZM1664 128V127.5H1536V128V128.5H1664V128ZM1536 128H1536.5V0H1536H1535.5V128H1536ZM1664 128H1663.5V256H1664H1664.5V128H1664ZM1664 256V255.5H1536V256V256.5H1664V256ZM1536 256H1536.5V128H1536H1535.5V256H1536ZM1664 256H1663.5V384H1664H1664.5V256H1664ZM1664 384V383.5H1536V384V384.5H1664V384ZM1536 384H1536.5V256H1536H1535.5V384H1536ZM1664 384H1663.5V512H1664H1664.5V384H1664ZM1664 512V511.5H1536V512V512.5H1664V512ZM1536 512H1536.5V384H1536H1535.5V512H1536ZM1664 512H1663.5V640H1664H1664.5V512H1664ZM1664 640V639.5H1536V640V640.5H1664V640ZM1536 640H1536.5V512H1536H1535.5V640H1536ZM1664 640H1663.5V768H1664H1664.5V640H1664ZM1536 768H1536.5V640H1536H1535.5V768H1536ZM256 0H255.5V128H256H256.5V0H256ZM256 128V127.5H128V128V128.5H256V128ZM256 128H255.5V256H256H256.5V128H256ZM256 256V255.5H128V256V256.5H256V256ZM256 256H255.5V384H256H256.5V256H256ZM256 384V383.5H128V384V384.5H256V384ZM256 384H255.5V512H256H256.5V384H256ZM256 512V511.5H128V512V512.5H256V512ZM256 512H255.5V640H256H256.5V512H256ZM256 640V639.5H128V640V640.5H256V640ZM256 640H255.5V768H256H256.5V640H256ZM640 0H639.5V128H640H640.5V0H640ZM640 128V127.5H512V128V128.5H640V128ZM640 128H639.5V256H640H640.5V128H640ZM640 256V255.5H512V256V256.5H640V256ZM640 256H639.5V384H640H640.5V256H640ZM640 384V383.5H512V384V384.5H640V384ZM640 384H639.5V512H640H640.5V384H640ZM640 512V511.5H512V512V512.5H640V512ZM640 512H639.5V640H640H640.5V512H640ZM640 640V639.5H512V640V640.5H640V640ZM640 640H639.5V768H640H640.5V640H640ZM1024 0H1023.5V128H1024H1024.5V0H1024ZM1024 128V127.5H896V128V128.5H1024V128ZM1024 128H1023.5V256H1024H1024.5V128H1024ZM1024 256V255.5H896V256V256.5H1024V256ZM1024 256H1023.5V384H1024H1024.5V256H1024ZM1024 384V383.5H896V384V384.5H1024V384ZM1024 384H1023.5V512H1024H1024.5V384H1024ZM1024 512V511.5H896V512V512.5H1024V512ZM1024 512H1023.5V640H1024H1024.5V512H1024ZM1024 640V639.5H896V640V640.5H1024V640ZM1024 640H1023.5V768H1024H1024.5V640H1024ZM1408 0H1407.5V128H1408H1408.5V0H1408ZM1408 128V127.5H1280V128V128.5H1408V128ZM1408 128H1407.5V256H1408H1408.5V128H1408ZM1408 256V255.5H1280V256V256.5H1408V256ZM1408 256H1407.5V384H1408H1408.5V256H1408ZM1408 384V383.5H1280V384V384.5H1408V384ZM1408 384H1407.5V512H1408H1408.5V384H1408ZM1408 512V511.5H1280V512V512.5H1408V512ZM1408 512H1407.5V640H1408H1408.5V512H1408ZM1408 640V639.5H1280V640V640.5H1408V640ZM1408 640H1407.5V768H1408H1408.5V640H1408ZM1792 0H1791.5V128H1792H1792.5V0H1792ZM1792 128V127.5H1664V128V128.5H1792V128ZM1792 128H1791.5V256H1792H1792.5V128H1792ZM1792 256V255.5H1664V256V256.5H1792V256ZM1792 256H1791.5V384H1792H1792.5V256H1792ZM1792 384V383.5H1664V384V384.5H1792V384ZM1792 384H1791.5V512H1792H1792.5V384H1792ZM1792 512V511.5H1664V512V512.5H1792V512ZM1792 512H1791.5V640H1792H1792.5V512H1792ZM1792 640V639.5H1664V640V640.5H1792V640ZM1792 640H1791.5V768H1792H1792.5V640H1792ZM384 128V127.5H256V128V128.5H384V128ZM384 256V255.5H256V256V256.5H384V256ZM384 384V383.5H256V384V384.5H384V384ZM384 512V511.5H256V512V512.5H384V512ZM384 640V639.5H256V640V640.5H384V640ZM768 128V127.5H640V128V128.5H768V128ZM768 256V255.5H640V256V256.5H768V256ZM768 384V383.5H640V384V384.5H768V384ZM768 512V511.5H640V512V512.5H768V512ZM768 640V639.5H640V640V640.5H768V640ZM1152 128V127.5H1024V128V128.5H1152V128ZM1152 256V255.5H1024V256V256.5H1152V256ZM1152 384V383.5H1024V384V384.5H1152V384ZM1152 512V511.5H1024V512V512.5H1152V512ZM1152 640V639.5H1024V640V640.5H1152V640ZM1536 128V127.5H1408V128V128.5H1536V128ZM1536 256V255.5H1408V256V256.5H1536V256ZM1536 384V383.5H1408V384V384.5H1536V384ZM1536 512V511.5H1408V512V512.5H1536V512ZM1536 640V639.5H1408V640V640.5H1536V640ZM1920 128V127.5H1792V128V128.5H1920V128ZM1920 256V255.5H1792V256V256.5H1920V256ZM1920 384V383.5H1792V384V384.5H1920V384ZM1920 512V511.5H1792V512V512.5H1920V512ZM1920 640V639.5H1792V640V640.5H1920V640ZM0 0V-1H-1V0H0ZM0 768H-1V769H0V768ZM1920 0H1921V-1H1920V0ZM1920 768V769H1921V768H1920ZM0 0V1H128V0V-1H0V0ZM0 128H1V0H0H-1V128H0ZM0 256H1V128H0H-1V256H0ZM0 384H1V256H0H-1V384H0ZM0 512H1V384H0H-1V512H0ZM0 640H1V512H0H-1V640H0ZM128 768V767H0V768V769H128V768ZM0 768H1V640H0H-1V768H0ZM384 0V1H512V0V-1H384V0ZM512 768V767H384V768V769H512V768ZM768 0V1H896V0V-1H768V0ZM896 768V767H768V768V769H896V768ZM1152 0V1H1280V0V-1H1152V0ZM1280 768V767H1152V768V769H1280V768ZM1536 0V1H1664V0V-1H1536V0ZM1664 768V767H1536V768V769H1664V768ZM128 0V1H256V0V-1H128V0ZM256 768V767H128V768V769H256V768ZM512 0V1H640V0V-1H512V0ZM640 768V767H512V768V769H640V768ZM896 0V1H1024V0V-1H896V0ZM1024 768V767H896V768V769H1024V768ZM1280 0V1H1408V0V-1H1280V0ZM1408 768V767H1280V768V769H1408V768ZM1664 0V1H1792V0V-1H1664V0ZM1792 768V767H1664V768V769H1792V768ZM256 0V1H384V0V-1H256V0ZM384 768V767H256V768V769H384V768ZM640 0V1H768V0V-1H640V0ZM768 768V767H640V768V769H768V768ZM1024 0V1H1152V0V-1H1024V0ZM1152 768V767H1024V768V769H1152V768ZM1408 0V1H1536V0V-1H1408V0ZM1536 768V767H1408V768V769H1536V768ZM1792 0V1H1920V0V-1H1792V0ZM1920 0H1919V128H1920H1921V0H1920ZM1920 128H1919V256H1920H1921V128H1920ZM1920 256H1919V384H1920H1921V256H1920ZM1920 384H1919V512H1920H1921V384H1920ZM1920 512H1919V640H1920H1921V512H1920ZM1920 640H1919V768H1920H1921V640H1920ZM1920 768V767H1792V768V769H1920V768Z" fill="#A1AEF1" mask="url(#path-1-inside-1_3005_1559)"/>
</svg>
